<?xml version="1.0" encoding="utf-8"?>
<!-- Generator: Adobe Illustrator 27.4.0, SVG Export Plug-In . SVG Version: 6.00 Build 0)  -->
<svg version="1.1" id="Layer_1" xmlns="http://www.w3.org/2000/svg" xmlns:xlink="http://www.w3.org/1999/xlink" x="0px" y="0px"
	 viewBox="0 0 64 64" style="enable-background:new 0 0 64 64;" xml:space="preserve">
<style type="text/css">
	.st0{fill:#191919;}
	.st1{fill:#FFFFFF;}
</style>
<g>
	<g>
		<circle class="st0" cx="32" cy="32" r="32"/>
	</g>
	<path class="st1" d="M48.99,34.39l-1.9-9.89c-0.13-0.69-0.74-1.19-1.44-1.19H39c-0.61,0-1.1,0.5-1.1,1.1
		c0,0.15,0.03,0.29,0.09,0.42l2.95,7.09l-3.83,6.62l-8.87-19.34c-0.22-0.48-0.55-0.92-0.96-1.27l-4.9-4.18
		c-0.23-0.2-0.53-0.29-0.83-0.27c-0.3,0.03-0.58,0.17-0.77,0.4c-0.08,0.09-0.15,0.2-0.19,0.32l-1.6,4.01h-2.68
		c-0.73,0-1.33,0.6-1.33,1.33v4.46c0,0.67,0.43,1.28,1.06,1.51l4.52,1.63l-4.94,6.84c-0.32,0.45-0.22,1.08,0.23,1.41
		c0.17,0.12,0.36,0.19,0.57,0.19l3.66,0.07l-0.22,11.05l-3.97,2.22c-0.19,0.11-0.34,0.29-0.4,0.5c-0.06,0.22-0.03,0.44,0.07,0.63
		c0.15,0.26,0.43,0.43,0.73,0.43h17.14c0.6,0,1.18-0.24,1.61-0.67l13.43-13.72C48.91,35.65,49.11,35.01,48.99,34.39z M39.33,24.64
		h5.84l-3.4,5.86C41.77,30.5,39.33,24.64,39.33,24.64z M21.71,14.94l3.85,3.28H20.4L21.71,14.94z"/>
</g>
</svg>
