<?xml version="1.0" encoding="utf-8"?>
<!-- Generator: Adobe Illustrator 27.4.0, SVG Export Plug-In . SVG Version: 6.00 Build 0)  -->
<svg version="1.1" id="Layer_1" xmlns="http://www.w3.org/2000/svg" xmlns:xlink="http://www.w3.org/1999/xlink" x="0px" y="0px"
	 viewBox="0 0 256 256" style="enable-background:new 0 0 256 256;" xml:space="preserve">
<style type="text/css">
	.st0{fill:#2C2148;}
	.st1{fill-rule:evenodd;clip-rule:evenodd;fill:#FFFFFF;}
</style>
<g>
	<circle class="st0" cx="-276" cy="256" r="256"/>
	<path class="st1" d="M-187.42,381.51c-4.57-4.03-13.97-3.49-14.77-6.98c-0.81-3.49-1.34-5.37,0-7.25
		c1.34-1.88,7.25-11.01,9.94-15.85s6.99-39.75,5.1-50.76c-1.55-9.1-12.1-34.31-12.08-37.51c0.02-3.28,21.76-24.89,7.25-44.94
		c-5.64-7.79-24.98-26.05-32.23-42.7c-7.25-16.65-4.29-29.81-10.2-34.11c-5.91-4.29-2.69-5.64-4.56-12.62
		c-3.83-14.2-14.72-15.03-19.47-2.69c-2.02,5.24-15.85,1.48-15.45-0.53c0,0-0.66-1.92-1.58-4.42c-1.42-3.88-3.46-9.18-4.6-10.89
		c-1.88-2.82-9.26-4.43-11.55,4.16c-2.28,8.59-0.67,16.78-2.15,19.07c-1.48,2.28-16.25,11.01-18.4,23.1
		c-2.15,12.09-9.8,24.71-8.73,30.48c1.07,5.77,1.61,11.28,7.65,14.77c6.04,3.49,17.59,0.8,14.9,4.97
		c-2.69,4.16-16.92,18.8-14.5,29.27c2.42,10.47,9.27,18.8,13.43,22.29c4.16,3.49,5.24,2.55,5.37,8.59
		c0.13,6.04-7.25,20.82-6.71,33.44c0.53,12.62-18.53,26.59-13.97,40.02c4.56,13.43,4.83,13.43,3.49,14.5
		c-1.34,1.07-18.53-12.09-35.99,0.27c-17.46,12.35-25.25,26.05-15.31,30.08c9.94,4.03,53.98,0.27,58.28,0.27
		c4.3,0,9.67,2.15,18,7.25c8.32,5.1,6.44,7.25,9.94,8.06c0.28,0.06,0.56,0.16,0.85,0.28c3.35,1.41,7.4,6.11,9.63-0.82
		c2.42-7.52,4.03,5.91,6.44-1.88c2.42-7.79,1.61-13.7,1.61-13.7s6.98,1.07,14.5,0.27c7.52-0.8,12.09-4.56,12.09-4.56
		s6.45,17.19,11.01,17.19s3.22-1.61,9.94-1.88c6.71-0.27,10.48,0.54,13.16-1.34c2.68-1.88,0.81,2.15,6.18-2.95
		C-185.54,386.35-182.85,385.54-187.42,381.51z M-271.62,173.63c-1.21,0.75-2.52,1.21-3.85,1.41c-3.02,0.46-6.13-0.45-8.42-2.5
		c-1.14-4.29,0.6-9,4.58-11.44c1.22-0.74,2.53-1.21,3.85-1.41c3.02-0.46,6.12,0.44,8.43,2.5
		C-265.91,166.48-267.65,171.19-271.62,173.63z"/>
</g>
<g>
	<circle class="st0" cx="128" cy="128" r="128"/>
	<path class="st1" d="M172.29,190.76c-2.28-2.01-6.98-1.75-7.39-3.49c-0.4-1.75-0.67-2.69,0-3.63c0.67-0.94,3.62-5.51,4.97-7.92
		s3.49-19.88,2.55-25.38c-0.78-4.55-6.05-17.15-6.04-18.76c0.01-1.64,10.88-12.44,3.62-22.47c-2.82-3.89-12.49-13.02-16.11-21.35
		c-3.62-8.33-2.15-14.91-5.1-17.05c-2.95-2.15-1.34-2.82-2.28-6.31c-1.91-7.1-7.36-7.52-9.74-1.34c-1.01,2.62-7.92,0.74-7.72-0.27
		c0,0-0.33-0.96-0.79-2.21c-0.71-1.94-1.73-4.59-2.3-5.44c-0.94-1.41-4.63-2.22-5.77,2.08c-1.14,4.3-0.34,8.39-1.07,9.53
		c-0.74,1.14-8.13,5.51-9.2,11.55c-1.07,6.04-4.9,12.35-4.36,15.24c0.54,2.89,0.8,5.64,3.83,7.39c3.02,1.75,8.79,0.4,7.45,2.48
		c-1.34,2.08-8.46,9.4-7.25,14.64c1.21,5.24,4.63,9.4,6.71,11.14c2.08,1.75,2.62,1.28,2.69,4.3c0.07,3.02-3.63,10.41-3.36,16.72
		c0.27,6.31-9.27,13.29-6.98,20.01c2.28,6.71,2.42,6.71,1.75,7.25c-0.67,0.54-9.27-6.04-17.99,0.13
		c-8.73,6.18-12.62,13.03-7.65,15.04c4.97,2.01,26.99,0.13,29.14,0.13c2.15,0,4.84,1.07,9,3.63c4.16,2.55,3.22,3.63,4.97,4.03
		c0.14,0.03,0.28,0.08,0.42,0.14c1.68,0.71,3.7,3.05,4.81-0.41c1.21-3.76,2.01,2.95,3.22-0.94c1.21-3.9,0.81-6.85,0.81-6.85
		s3.49,0.54,7.25,0.13c3.76-0.4,6.04-2.28,6.04-2.28s3.22,8.59,5.51,8.59s1.61-0.81,4.97-0.94c3.36-0.13,5.24,0.27,6.58-0.67
		c1.34-0.94,0.4,1.07,3.09-1.48C173.23,193.17,174.57,192.77,172.29,190.76z M130.19,86.82c-0.61,0.37-1.26,0.61-1.92,0.71
		c-1.51,0.23-3.06-0.22-4.21-1.25c-0.57-2.15,0.3-4.5,2.29-5.72c0.61-0.37,1.26-0.61,1.92-0.71c1.51-0.23,3.06,0.22,4.21,1.25
		C133.04,83.24,132.18,85.6,130.19,86.82z"/>
</g>
<g>
	<circle class="st0" cx="64" cy="346" r="64"/>
	<path class="st1" d="M86.15,377.38c-1.14-1.01-3.49-0.87-3.69-1.75c-0.2-0.87-0.34-1.34,0-1.81c0.34-0.47,1.81-2.75,2.48-3.96
		s1.75-9.94,1.28-12.69c-0.39-2.28-3.03-8.58-3.02-9.38c0.01-0.82,5.44-6.22,1.81-11.24c-1.41-1.95-6.24-6.51-8.06-10.68
		c-1.81-4.16-1.07-7.45-2.55-8.53c-1.48-1.07-0.67-1.41-1.14-3.16c-0.96-3.55-3.68-3.76-4.87-0.67c-0.5,1.31-3.96,0.37-3.86-0.13
		c0,0-0.17-0.48-0.39-1.1c-0.36-0.97-0.86-2.29-1.15-2.72c-0.47-0.71-2.32-1.11-2.89,1.04c-0.57,2.15-0.17,4.2-0.54,4.77
		c-0.37,0.57-4.06,2.75-4.6,5.77c-0.54,3.02-2.45,6.18-2.18,7.62c0.27,1.44,0.4,2.82,1.91,3.69c1.51,0.87,4.4,0.2,3.73,1.24
		c-0.67,1.04-4.23,4.7-3.63,7.32c0.6,2.62,2.32,4.7,3.36,5.57c1.04,0.87,1.31,0.64,1.34,2.15c0.03,1.51-1.81,5.2-1.68,8.36
		c0.13,3.16-4.63,6.65-3.49,10c1.14,3.36,1.21,3.36,0.87,3.63c-0.34,0.27-4.63-3.02-9,0.07c-4.36,3.09-6.31,6.51-3.83,7.52
		c2.48,1.01,13.5,0.07,14.57,0.07c1.07,0,2.42,0.54,4.5,1.81c2.08,1.28,1.61,1.81,2.48,2.01c0.07,0.02,0.14,0.04,0.21,0.07
		c0.84,0.35,1.85,1.53,2.41-0.2c0.6-1.88,1.01,1.48,1.61-0.47c0.6-1.95,0.4-3.42,0.4-3.42s1.75,0.27,3.63,0.07
		c1.88-0.2,3.02-1.14,3.02-1.14s1.61,4.3,2.75,4.3s0.81-0.4,2.48-0.47c1.68-0.07,2.62,0.13,3.29-0.34c0.67-0.47,0.2,0.54,1.54-0.74
		C86.61,378.59,87.29,378.38,86.15,377.38z M65.09,325.41c-0.3,0.19-0.63,0.3-0.96,0.35c-0.75,0.11-1.53-0.11-2.11-0.62
		c-0.28-1.07,0.15-2.25,1.14-2.86c0.3-0.19,0.63-0.3,0.96-0.35c0.75-0.12,1.53,0.11,2.11,0.62
		C66.52,323.62,66.09,324.8,65.09,325.41z"/>
</g>
<g>
	<circle class="st0" cx="195" cy="314" r="32"/>
	<path class="st1" d="M206.07,329.69c-0.57-0.5-1.75-0.44-1.85-0.87c-0.1-0.44-0.17-0.67,0-0.91c0.17-0.23,0.91-1.38,1.24-1.98
		c0.34-0.6,0.87-4.97,0.64-6.35c-0.19-1.14-1.51-4.29-1.51-4.69c0-0.41,2.72-3.11,0.91-5.62c-0.7-0.97-3.12-3.26-4.03-5.34
		c-0.91-2.08-0.54-3.73-1.28-4.26c-0.74-0.54-0.34-0.7-0.57-1.58c-0.48-1.78-1.84-1.88-2.43-0.34c-0.25,0.65-1.98,0.18-1.93-0.07
		c0,0-0.08-0.24-0.2-0.55c-0.18-0.49-0.43-1.15-0.58-1.36c-0.23-0.35-1.16-0.55-1.44,0.52c-0.29,1.07-0.08,2.1-0.27,2.38
		c-0.18,0.29-2.03,1.38-2.3,2.89c-0.27,1.51-1.23,3.09-1.09,3.81c0.13,0.72,0.2,1.41,0.96,1.85c0.76,0.44,2.2,0.1,1.86,0.62
		c-0.34,0.52-2.11,2.35-1.81,3.66c0.3,1.31,1.16,2.35,1.68,2.79c0.52,0.44,0.65,0.32,0.67,1.07c0.02,0.76-0.91,2.6-0.84,4.18
		c0.07,1.58-2.32,3.32-1.75,5c0.57,1.68,0.6,1.68,0.44,1.81c-0.17,0.13-2.32-1.51-4.5,0.03c-2.18,1.54-3.16,3.26-1.91,3.76
		c1.24,0.5,6.75,0.03,7.29,0.03c0.54,0,1.21,0.27,2.25,0.91c1.04,0.64,0.81,0.91,1.24,1.01c0.03,0.01,0.07,0.02,0.11,0.04
		c0.42,0.18,0.93,0.76,1.2-0.1c0.3-0.94,0.5,0.74,0.81-0.23c0.3-0.97,0.2-1.71,0.2-1.71s0.87,0.13,1.81,0.03
		c0.94-0.1,1.51-0.57,1.51-0.57s0.81,2.15,1.38,2.15s0.4-0.2,1.24-0.23c0.84-0.03,1.31,0.07,1.65-0.17c0.34-0.23,0.1,0.27,0.77-0.37
		C206.31,330.29,206.64,330.19,206.07,329.69z M195.55,303.7c-0.15,0.09-0.32,0.15-0.48,0.18c-0.38,0.06-0.77-0.06-1.05-0.31
		c-0.14-0.54,0.08-1.12,0.57-1.43c0.15-0.09,0.32-0.15,0.48-0.18c0.38-0.06,0.77,0.06,1.05,0.31
		C196.26,302.81,196.04,303.4,195.55,303.7z"/>
</g>
<g>
	<circle class="st0" cx="179" cy="386" r="16"/>
	<path class="st1" d="M184.54,393.84c-0.29-0.25-0.87-0.22-0.92-0.44c-0.05-0.22-0.08-0.34,0-0.45c0.08-0.12,0.45-0.69,0.62-0.99
		c0.17-0.3,0.44-2.48,0.32-3.17c-0.1-0.57-0.76-2.14-0.76-2.34c0-0.2,1.36-1.56,0.45-2.81c-0.35-0.49-1.56-1.63-2.01-2.67
		c-0.45-1.04-0.27-1.86-0.64-2.13c-0.37-0.27-0.17-0.35-0.29-0.79c-0.24-0.89-0.92-0.94-1.22-0.17c-0.13,0.33-0.99,0.09-0.97-0.03
		c0,0-0.04-0.12-0.1-0.28c-0.09-0.24-0.22-0.57-0.29-0.68c-0.12-0.18-0.58-0.28-0.72,0.26c-0.14,0.54-0.04,1.05-0.13,1.19
		c-0.09,0.14-1.02,0.69-1.15,1.44c-0.13,0.76-0.61,1.54-0.55,1.91c0.07,0.36,0.1,0.71,0.48,0.92c0.38,0.22,1.1,0.05,0.93,0.31
		c-0.17,0.26-1.06,1.17-0.91,1.83c0.15,0.65,0.58,1.17,0.84,1.39c0.26,0.22,0.33,0.16,0.34,0.54c0.01,0.38-0.45,1.3-0.42,2.09
		c0.03,0.79-1.16,1.66-0.87,2.5c0.29,0.84,0.3,0.84,0.22,0.91c-0.08,0.07-1.16-0.76-2.25,0.02c-1.09,0.77-1.58,1.63-0.96,1.88
		c0.62,0.25,3.37,0.02,3.64,0.02c0.27,0,0.6,0.13,1.12,0.45c0.52,0.32,0.4,0.45,0.62,0.5c0.02,0,0.03,0.01,0.05,0.02
		c0.21,0.09,0.46,0.38,0.6-0.05c0.15-0.47,0.25,0.37,0.4-0.12c0.15-0.49,0.1-0.86,0.1-0.86s0.44,0.07,0.91,0.02
		c0.47-0.05,0.76-0.29,0.76-0.29s0.4,1.07,0.69,1.07s0.2-0.1,0.62-0.12c0.42-0.02,0.65,0.03,0.82-0.08
		c0.17-0.12,0.05,0.13,0.39-0.18C184.65,394.15,184.82,394.1,184.54,393.84z M179.27,380.85c-0.08,0.05-0.16,0.08-0.24,0.09
		c-0.19,0.03-0.38-0.03-0.53-0.16c-0.07-0.27,0.04-0.56,0.29-0.71c0.08-0.05,0.16-0.08,0.24-0.09c0.19-0.03,0.38,0.03,0.53,0.16
		C179.63,380.41,179.52,380.7,179.27,380.85z"/>
</g>
</svg>
