<?xml version="1.0" encoding="utf-8"?>
<!-- Generator: Adobe Illustrator 27.4.0, SVG Export Plug-In . SVG Version: 6.00 Build 0)  -->
<svg version="1.1" id="Layer_1" xmlns="http://www.w3.org/2000/svg" xmlns:xlink="http://www.w3.org/1999/xlink" x="0px" y="0px"
	 viewBox="0 0 64 64" style="enable-background:new 0 0 64 64;" xml:space="preserve">
<style type="text/css">
	.st0{fill:#2C2148;}
	.st1{fill-rule:evenodd;clip-rule:evenodd;fill:#FFFFFF;}
</style>
<g>
	<circle class="st0" cx="32" cy="32" r="32"/>
	<path class="st1" d="M43.07,47.69c-0.57-0.5-1.75-0.44-1.85-0.87c-0.1-0.44-0.17-0.67,0-0.91c0.17-0.23,0.91-1.38,1.24-1.98
		s0.87-4.97,0.64-6.35c-0.19-1.14-1.51-4.29-1.51-4.69c0-0.41,2.72-3.11,0.91-5.62c-0.7-0.97-3.12-3.26-4.03-5.34
		c-0.91-2.08-0.54-3.73-1.28-4.26c-0.74-0.54-0.34-0.7-0.57-1.58c-0.48-1.78-1.84-1.88-2.43-0.34c-0.25,0.65-1.98,0.18-1.93-0.07
		c0,0-0.08-0.24-0.2-0.55c-0.18-0.49-0.43-1.15-0.58-1.36c-0.23-0.35-1.16-0.55-1.44,0.52c-0.29,1.07-0.08,2.1-0.27,2.38
		c-0.18,0.29-2.03,1.38-2.3,2.89c-0.27,1.51-1.23,3.09-1.09,3.81c0.13,0.72,0.2,1.41,0.96,1.85c0.76,0.44,2.2,0.1,1.86,0.62
		c-0.34,0.52-2.11,2.35-1.81,3.66c0.3,1.31,1.16,2.35,1.68,2.79c0.52,0.44,0.65,0.32,0.67,1.07c0.02,0.76-0.91,2.6-0.84,4.18
		c0.07,1.58-2.32,3.32-1.75,5c0.57,1.68,0.6,1.68,0.44,1.81c-0.17,0.13-2.32-1.51-4.5,0.03c-2.18,1.54-3.16,3.26-1.91,3.76
		c1.24,0.5,6.75,0.03,7.29,0.03c0.54,0,1.21,0.27,2.25,0.91c1.04,0.64,0.81,0.91,1.24,1.01c0.03,0.01,0.07,0.02,0.11,0.04
		c0.42,0.18,0.93,0.76,1.2-0.1c0.3-0.94,0.5,0.74,0.81-0.23c0.3-0.97,0.2-1.71,0.2-1.71s0.87,0.13,1.81,0.03
		c0.94-0.1,1.51-0.57,1.51-0.57s0.81,2.15,1.38,2.15s0.4-0.2,1.24-0.23c0.84-0.03,1.31,0.07,1.65-0.17c0.34-0.23,0.1,0.27,0.77-0.37
		C43.31,48.29,43.64,48.19,43.07,47.69z M32.55,21.7c-0.15,0.09-0.32,0.15-0.48,0.18c-0.38,0.06-0.77-0.06-1.05-0.31
		c-0.14-0.54,0.08-1.12,0.57-1.43c0.15-0.09,0.32-0.15,0.48-0.18c0.38-0.06,0.77,0.06,1.05,0.31C33.26,20.81,33.04,21.4,32.55,21.7z
		"/>
</g>
</svg>
