<?xml version="1.0" encoding="UTF-8"?>
<svg id="Layer_1" data-name="Layer 1" xmlns="http://www.w3.org/2000/svg" viewBox="0 0 512 512">
  <defs>
    <style>
      .cls-1 {
        fill: #fff;
      }

      .cls-2 {
        fill: #191919;
      }
    </style>
  </defs>
  <circle class="cls-2" cx="256" cy="256" r="256"/>
  <path class="cls-1" d="m391.89,275.13l-15.23-79.12c-1.06-5.5-5.92-9.52-11.53-9.52h-53.1c-4.87,0-8.83,3.97-8.83,8.83,0,1.16.21,2.33.69,3.38l23.59,56.75-30.68,52.94-70.92-154.7c-1.75-3.86-4.39-7.35-7.67-10.15l-39.19-33.43c-1.85-1.59-4.23-2.33-6.61-2.17-2.43.21-4.65,1.32-6.19,3.17-.63.74-1.16,1.59-1.53,2.54l-12.8,32.05h-21.42c-5.87,0-10.63,4.76-10.63,10.63v35.7c0,5.39,3.44,10.26,8.52,12.11l36.18,13.06-39.51,54.74c-2.59,3.6-1.8,8.67,1.85,11.27,1.32.95,2.91,1.48,4.55,1.53l29.3.58-1.8,88.43-31.73,17.77c-1.53.9-2.7,2.33-3.17,4.02-.48,1.75-.26,3.54.58,5.08,1.16,2.12,3.44,3.44,5.82,3.44h137.09c4.81,0,9.47-1.96,12.85-5.39l107.42-109.8c3.54-3.65,5.08-8.78,4.13-13.75Zm-77.27-78.01h46.7l-27.18,46.91s-19.52-46.91-19.52-46.91Zm-140.95-77.59l30.78,26.23h-41.25l10.47-26.23Z"/>
</svg>