<?xml version="1.0" encoding="utf-8"?>
<!-- Generator: Adobe Illustrator 27.4.0, SVG Export Plug-In . SVG Version: 6.00 Build 0)  -->
<svg version="1.1" id="Layer_1" xmlns="http://www.w3.org/2000/svg" xmlns:xlink="http://www.w3.org/1999/xlink" x="0px" y="0px"
	 viewBox="0 0 256 256" style="enable-background:new 0 0 256 256;" xml:space="preserve">
<style type="text/css">
	.st0{fill:#2C2148;}
	.st1{fill-rule:evenodd;clip-rule:evenodd;fill:#FFFFFF;}
</style>
<g>
	<circle class="st0" cx="128" cy="128" r="128"/>
	<path class="st1" d="M172.29,190.76c-2.28-2.01-6.98-1.75-7.39-3.49c-0.4-1.75-0.67-2.69,0-3.63c0.67-0.94,3.62-5.51,4.97-7.92
		s3.49-19.88,2.55-25.38c-0.78-4.55-6.05-17.15-6.04-18.76c0.01-1.64,10.88-12.44,3.62-22.47c-2.82-3.89-12.49-13.02-16.11-21.35
		c-3.62-8.33-2.15-14.91-5.1-17.05c-2.95-2.15-1.34-2.82-2.28-6.31c-1.91-7.1-7.36-7.52-9.74-1.34c-1.01,2.62-7.92,0.74-7.72-0.27
		c0,0-0.33-0.96-0.79-2.21c-0.71-1.94-1.73-4.59-2.3-5.44c-0.94-1.41-4.63-2.22-5.77,2.08c-1.14,4.3-0.34,8.39-1.07,9.53
		c-0.74,1.14-8.13,5.51-9.2,11.55c-1.07,6.04-4.9,12.35-4.36,15.24c0.54,2.89,0.8,5.64,3.83,7.39c3.02,1.75,8.79,0.4,7.45,2.48
		c-1.34,2.08-8.46,9.4-7.25,14.64c1.21,5.24,4.63,9.4,6.71,11.14c2.08,1.75,2.62,1.28,2.69,4.3c0.07,3.02-3.63,10.41-3.36,16.72
		c0.27,6.31-9.27,13.29-6.98,20.01c2.28,6.71,2.42,6.71,1.75,7.25c-0.67,0.54-9.27-6.04-17.99,0.13
		c-8.73,6.18-12.62,13.03-7.65,15.04c4.97,2.01,26.99,0.13,29.14,0.13c2.15,0,4.84,1.07,9,3.63c4.16,2.55,3.22,3.63,4.97,4.03
		c0.14,0.03,0.28,0.08,0.42,0.14c1.68,0.71,3.7,3.05,4.81-0.41c1.21-3.76,2.01,2.95,3.22-0.94c1.21-3.9,0.81-6.85,0.81-6.85
		s3.49,0.54,7.25,0.13c3.76-0.4,6.04-2.28,6.04-2.28s3.22,8.59,5.51,8.59s1.61-0.81,4.97-0.94c3.36-0.13,5.24,0.27,6.58-0.67
		c1.34-0.94,0.4,1.07,3.09-1.48C173.23,193.17,174.57,192.77,172.29,190.76z M130.19,86.82c-0.61,0.37-1.26,0.61-1.92,0.71
		c-1.51,0.23-3.06-0.22-4.21-1.25c-0.57-2.15,0.3-4.5,2.29-5.72c0.61-0.37,1.26-0.61,1.92-0.71c1.51-0.23,3.06,0.22,4.21,1.25
		C133.04,83.24,132.18,85.6,130.19,86.82z"/>
</g>
</svg>
