<?xml version="1.0" encoding="UTF-8"?>
<svg id="Layer_1" data-name="Layer 1" xmlns="http://www.w3.org/2000/svg" viewBox="0 0 64 64">
  <defs>
    <style>
      .cls-1 {
        fill: #fff;
      }

      .cls-2 {
        fill: #191919;
      }
    </style>
  </defs>
  <circle class="cls-2" cx="32" cy="32" r="32"/>
  <path class="cls-1" d="m48.99,34.39l-1.9-9.89c-.13-.69-.74-1.19-1.44-1.19h-6.64c-.61,0-1.1.5-1.1,1.1,0,.15.03.29.09.42l2.95,7.09-3.83,6.62-8.87-19.34c-.22-.48-.55-.92-.96-1.27l-4.9-4.18c-.23-.2-.53-.29-.83-.27-.3.03-.58.17-.77.4-.08.09-.15.2-.19.32l-1.6,4.01h-2.68c-.73,0-1.33.6-1.33,1.33v4.46c0,.67.43,1.28,1.06,1.51l4.52,1.63-4.94,6.84c-.32.45-.22,1.08.23,1.41.17.12.36.19.57.19l3.66.07-.22,11.05-3.97,2.22c-.19.11-.34.29-.4.5-.06.22-.03.44.07.63.15.26.43.43.73.43h17.14c.6,0,1.18-.24,1.61-.67l13.43-13.72c.44-.46.63-1.1.52-1.72Zm-9.66-9.75h5.84l-3.4,5.86s-2.44-5.86-2.44-5.86Zm-17.62-9.7l3.85,3.28h-5.16l1.31-3.28Z"/>
</svg>