<?xml version="1.0" encoding="utf-8"?>
<!-- Generator: Adobe Illustrator 27.4.0, SVG Export Plug-In . SVG Version: 6.00 Build 0)  -->
<svg version="1.1" id="Layer_1" xmlns="http://www.w3.org/2000/svg" xmlns:xlink="http://www.w3.org/1999/xlink" x="0px" y="0px"
	 viewBox="0 0 512 512" style="enable-background:new 0 0 512 512;" xml:space="preserve">
<style type="text/css">
	.st0{fill:#2C2148;}
	.st1{fill-rule:evenodd;clip-rule:evenodd;fill:#FFFFFF;}
</style>
<g>
	<circle class="st0" cx="256" cy="256" r="256"/>
	<path class="st1" d="M344.58,381.51c-4.57-4.03-13.97-3.49-14.77-6.98c-0.81-3.49-1.34-5.37,0-7.25
		c1.34-1.88,7.25-11.01,9.94-15.85s6.99-39.75,5.1-50.76c-1.55-9.1-12.1-34.31-12.08-37.51c0.02-3.28,21.76-24.89,7.25-44.94
		c-5.64-7.79-24.98-26.05-32.23-42.7c-7.25-16.65-4.29-29.81-10.2-34.11c-5.91-4.29-2.69-5.64-4.56-12.62
		c-3.83-14.2-14.72-15.03-19.47-2.69c-2.02,5.24-15.85,1.48-15.45-0.53c0,0-0.66-1.92-1.58-4.42c-1.42-3.88-3.46-9.18-4.6-10.89
		c-1.88-2.82-9.26-4.43-11.55,4.16c-2.28,8.59-0.67,16.78-2.15,19.07c-1.48,2.28-16.25,11.01-18.4,23.1
		c-2.15,12.09-9.8,24.71-8.73,30.48c1.07,5.77,1.61,11.28,7.65,14.77c6.04,3.49,17.59,0.8,14.9,4.97
		c-2.69,4.16-16.92,18.8-14.5,29.27c2.42,10.47,9.27,18.8,13.43,22.29c4.16,3.49,5.24,2.55,5.37,8.59
		c0.13,6.04-7.25,20.82-6.71,33.44c0.53,12.62-18.53,26.59-13.97,40.02c4.56,13.43,4.83,13.43,3.49,14.5
		c-1.34,1.07-18.53-12.09-35.99,0.27c-17.46,12.35-25.25,26.05-15.31,30.08c9.94,4.03,53.98,0.27,58.28,0.27
		c4.3,0,9.67,2.15,18,7.25c8.32,5.1,6.44,7.25,9.94,8.06c0.28,0.06,0.56,0.16,0.85,0.28c3.35,1.41,7.4,6.11,9.63-0.82
		c2.42-7.52,4.03,5.91,6.44-1.88c2.42-7.79,1.61-13.7,1.61-13.7s6.98,1.07,14.5,0.27c7.52-0.8,12.09-4.56,12.09-4.56
		s6.45,17.19,11.01,17.19s3.22-1.61,9.94-1.88c6.71-0.27,10.48,0.54,13.16-1.34c2.68-1.88,0.81,2.15,6.18-2.95
		C346.46,386.35,349.15,385.54,344.58,381.51z M260.38,173.63c-1.21,0.75-2.52,1.21-3.85,1.41c-3.02,0.46-6.13-0.45-8.42-2.5
		c-1.14-4.29,0.6-9,4.58-11.44c1.22-0.74,2.53-1.21,3.85-1.41c3.02-0.46,6.12,0.44,8.43,2.5
		C266.09,166.48,264.35,171.19,260.38,173.63z"/>
</g>
</svg>
