<?xml version="1.0" encoding="UTF-8"?>
<svg id="Layer_1" data-name="Layer 1" xmlns="http://www.w3.org/2000/svg" viewBox="0 0 256 256">
  <defs>
    <style>
      .cls-1 {
        fill: #fff;
      }

      .cls-2 {
        fill: #191919;
      }
    </style>
  </defs>
  <circle class="cls-2" cx="128" cy="128" r="128"/>
  <path class="cls-1" d="m195.95,137.56l-7.62-39.56c-.53-2.75-2.96-4.76-5.76-4.76h-26.55c-2.43,0-4.42,1.98-4.42,4.42,0,.58.11,1.16.34,1.69l11.79,28.37-15.34,26.47-35.46-77.35c-.87-1.93-2.19-3.68-3.83-5.08l-19.6-16.71c-.93-.79-2.12-1.16-3.31-1.08-1.22.11-2.33.66-3.09,1.59-.32.37-.58.79-.77,1.27l-6.4,16.03h-10.71c-2.94,0-5.32,2.38-5.32,5.32v17.85c0,2.7,1.72,5.13,4.26,6.06l18.09,6.53-19.75,27.37c-1.3,1.8-.9,4.34.93,5.63.66.48,1.45.74,2.27.77l14.65.29-.9,44.22-15.87,8.89c-.77.45-1.35,1.16-1.59,2.01-.24.87-.13,1.77.29,2.54.58,1.06,1.72,1.72,2.91,1.72h68.54c2.41,0,4.73-.98,6.43-2.7l53.71-54.9c1.77-1.82,2.54-4.39,2.06-6.88Zm-38.64-39.01h23.35l-13.59,23.46s-9.76-23.46-9.76-23.46Zm-70.47-38.79l15.39,13.12h-20.63l5.24-13.12Z"/>
</svg>