<?xml version="1.0" encoding="UTF-8"?>
<svg id="Layer_1" data-name="Layer 1" xmlns="http://www.w3.org/2000/svg" viewBox="0 0 32 32">
  <defs>
    <style>
      .cls-1 {
        fill: #fff;
      }

      .cls-2 {
        fill: #191919;
      }
    </style>
  </defs>
  <circle class="cls-2" cx="18" cy="17" r="16"/>
  <path class="cls-1" d="m26.49,18.2l-.95-4.95c-.07-.34-.37-.6-.72-.6h-3.32c-.3,0-.55.25-.55.55,0,.07.01.15.04.21l1.47,3.55-1.92,3.31-4.43-9.67c-.11-.24-.27-.46-.48-.63l-2.45-2.09c-.12-.1-.26-.15-.41-.14-.15.01-.29.08-.39.2-.04.05-.07.1-.1.16l-.8,2h-1.34c-.37,0-.66.3-.66.66v2.23c0,.34.21.64.53.76l2.26.82-2.47,3.42c-.16.22-.11.54.12.7.08.06.18.09.28.1l1.83.04-.11,5.53-1.98,1.11c-.1.06-.17.15-.2.25-.03.11-.02.22.04.32.07.13.21.21.36.21h8.57c.3,0,.59-.12.8-.34l6.71-6.86c.22-.23.32-.55.26-.86Zm-4.83-4.88h2.92l-1.7,2.93s-1.22-2.93-1.22-2.93Zm-8.81-4.85l1.92,1.64h-2.58l.65-1.64Z"/>
</svg>