<?xml version="1.0" encoding="utf-8"?>
<!-- Generator: Adobe Illustrator 27.4.0, SVG Export Plug-In . SVG Version: 6.00 Build 0)  -->
<svg version="1.1" id="Layer_1" xmlns="http://www.w3.org/2000/svg" xmlns:xlink="http://www.w3.org/1999/xlink" x="0px" y="0px"
	 viewBox="0 0 32 32" style="enable-background:new 0 0 32 32;" xml:space="preserve">
<style type="text/css">
	.st0{fill:#2C2148;}
	.st1{fill-rule:evenodd;clip-rule:evenodd;fill:#FFFFFF;}
</style>
<g>
	<circle class="st0" cx="16" cy="16" r="16"/>
	<path class="st1" d="M21.54,23.84c-0.29-0.25-0.87-0.22-0.92-0.44c-0.05-0.22-0.08-0.34,0-0.45c0.08-0.12,0.45-0.69,0.62-0.99
		s0.44-2.48,0.32-3.17c-0.1-0.57-0.76-2.14-0.76-2.34c0-0.2,1.36-1.56,0.45-2.81c-0.35-0.49-1.56-1.63-2.01-2.67
		c-0.45-1.04-0.27-1.86-0.64-2.13c-0.37-0.27-0.17-0.35-0.29-0.79c-0.24-0.89-0.92-0.94-1.22-0.17c-0.13,0.33-0.99,0.09-0.97-0.03
		c0,0-0.04-0.12-0.1-0.28C15.94,7.33,15.82,7,15.75,6.89c-0.12-0.18-0.58-0.28-0.72,0.26c-0.14,0.54-0.04,1.05-0.13,1.19
		c-0.09,0.14-1.02,0.69-1.15,1.44c-0.13,0.76-0.61,1.54-0.55,1.91c0.07,0.36,0.1,0.71,0.48,0.92c0.38,0.22,1.1,0.05,0.93,0.31
		c-0.17,0.26-1.06,1.17-0.91,1.83c0.15,0.65,0.58,1.17,0.84,1.39c0.26,0.22,0.33,0.16,0.34,0.54c0.01,0.38-0.45,1.3-0.42,2.09
		c0.03,0.79-1.16,1.66-0.87,2.5c0.29,0.84,0.3,0.84,0.22,0.91c-0.08,0.07-1.16-0.76-2.25,0.02c-1.09,0.77-1.58,1.63-0.96,1.88
		c0.62,0.25,3.37,0.02,3.64,0.02c0.27,0,0.6,0.13,1.12,0.45c0.52,0.32,0.4,0.45,0.62,0.5c0.02,0,0.03,0.01,0.05,0.02
		c0.21,0.09,0.46,0.38,0.6-0.05c0.15-0.47,0.25,0.37,0.4-0.12c0.15-0.49,0.1-0.86,0.1-0.86s0.44,0.07,0.91,0.02
		c0.47-0.05,0.76-0.29,0.76-0.29s0.4,1.07,0.69,1.07s0.2-0.1,0.62-0.12c0.42-0.02,0.65,0.03,0.82-0.08
		c0.17-0.12,0.05,0.13,0.39-0.18C21.65,24.15,21.82,24.1,21.54,23.84z M16.27,10.85c-0.08,0.05-0.16,0.08-0.24,0.09
		c-0.19,0.03-0.38-0.03-0.53-0.16c-0.07-0.27,0.04-0.56,0.29-0.71c0.08-0.05,0.16-0.08,0.24-0.09c0.19-0.03,0.38,0.03,0.53,0.16
		C16.63,10.41,16.52,10.7,16.27,10.85z"/>
</g>
</svg>
