<?xml version="1.0" encoding="UTF-8"?>
<svg id="Layer_1" data-name="Layer 1" xmlns="http://www.w3.org/2000/svg" viewBox="0 0 128 128">
  <defs>
    <style>
      .cls-1 {
        fill: #fff;
      }

      .cls-2 {
        fill: #191919;
      }
    </style>
  </defs>
  <circle class="cls-2" cx="64" cy="64" r="64"/>
  <path class="cls-1" d="m97.97,68.78l-3.81-19.78c-.26-1.38-1.48-2.38-2.88-2.38h-13.28c-1.22,0-2.21.99-2.21,2.21,0,.29.05.58.17.85l5.9,14.19-7.67,13.24-17.73-38.68c-.44-.97-1.1-1.84-1.92-2.54l-9.8-8.36c-.46-.4-1.06-.58-1.65-.54-.61.05-1.16.33-1.55.79-.16.19-.29.4-.38.63l-3.2,8.01h-5.36c-1.47,0-2.66,1.19-2.66,2.66v8.93c0,1.35.86,2.57,2.13,3.03l9.04,3.27-9.88,13.69c-.65.9-.45,2.17.46,2.82.33.24.73.37,1.14.38l7.33.15-.45,22.11-7.93,4.44c-.38.22-.67.58-.79,1-.12.44-.07.89.15,1.27.29.53.86.86,1.45.86h34.27c1.2,0,2.37-.49,3.21-1.35l26.85-27.45c.89-.91,1.27-2.19,1.03-3.44Zm-19.32-19.5h11.68l-6.8,11.73s-4.88-11.73-4.88-11.73Zm-35.24-19.4l7.7,6.56h-10.31l2.62-6.56Z"/>
</svg>