<?xml version="1.0" encoding="utf-8"?>
<!-- Generator: Adobe Illustrator 27.4.0, SVG Export Plug-In . SVG Version: 6.00 Build 0)  -->
<svg version="1.1" id="Layer_1" xmlns="http://www.w3.org/2000/svg" xmlns:xlink="http://www.w3.org/1999/xlink" x="0px" y="0px"
	 viewBox="0 0 128 128" style="enable-background:new 0 0 128 128;" xml:space="preserve">
<style type="text/css">
	.st0{fill:#2C2148;}
	.st1{fill-rule:evenodd;clip-rule:evenodd;fill:#FFFFFF;}
</style>
<g>
	<circle class="st0" cx="64" cy="64" r="64"/>
	<path class="st1" d="M86.15,95.38c-1.14-1.01-3.49-0.87-3.69-1.75c-0.2-0.87-0.34-1.34,0-1.81c0.34-0.47,1.81-2.75,2.48-3.96
		s1.75-9.94,1.28-12.69c-0.39-2.28-3.03-8.58-3.02-9.38c0.01-0.82,5.44-6.22,1.81-11.24c-1.41-1.95-6.24-6.51-8.06-10.68
		c-1.81-4.16-1.07-7.45-2.55-8.53c-1.48-1.07-0.67-1.41-1.14-3.16c-0.96-3.55-3.68-3.76-4.87-0.67c-0.5,1.31-3.96,0.37-3.86-0.13
		c0,0-0.17-0.48-0.39-1.1c-0.36-0.97-0.86-2.29-1.15-2.72c-0.47-0.71-2.32-1.11-2.89,1.04c-0.57,2.15-0.17,4.2-0.54,4.77
		c-0.37,0.57-4.06,2.75-4.6,5.77c-0.54,3.02-2.45,6.18-2.18,7.62c0.27,1.44,0.4,2.82,1.91,3.69c1.51,0.87,4.4,0.2,3.73,1.24
		c-0.67,1.04-4.23,4.7-3.63,7.32c0.6,2.62,2.32,4.7,3.36,5.57c1.04,0.87,1.31,0.64,1.34,2.15c0.03,1.51-1.81,5.2-1.68,8.36
		c0.13,3.16-4.63,6.65-3.49,10c1.14,3.36,1.21,3.36,0.87,3.63c-0.34,0.27-4.63-3.02-9,0.07c-4.36,3.09-6.31,6.51-3.83,7.52
		c2.48,1.01,13.5,0.07,14.57,0.07c1.07,0,2.42,0.54,4.5,1.81c2.08,1.28,1.61,1.81,2.48,2.01c0.07,0.02,0.14,0.04,0.21,0.07
		c0.84,0.35,1.85,1.53,2.41-0.2c0.6-1.88,1.01,1.48,1.61-0.47c0.6-1.95,0.4-3.42,0.4-3.42s1.75,0.27,3.63,0.07
		c1.88-0.2,3.02-1.14,3.02-1.14s1.61,4.3,2.75,4.3s0.81-0.4,2.48-0.47c1.68-0.07,2.62,0.13,3.29-0.34c0.67-0.47,0.2,0.54,1.54-0.74
		C86.61,96.59,87.29,96.38,86.15,95.38z M65.09,43.41c-0.3,0.19-0.63,0.3-0.96,0.35c-0.75,0.11-1.53-0.11-2.11-0.62
		c-0.28-1.07,0.15-2.25,1.14-2.86c0.3-0.19,0.63-0.3,0.96-0.35c0.75-0.12,1.53,0.11,2.11,0.62C66.52,41.62,66.09,42.8,65.09,43.41z"
		/>
</g>
</svg>
